<svg version="1.1" viewBox="0 0 100 100" xmlns="http://www.w3.org/2000/svg">
 <rect y="3.8323e-7" width="100" height="100" rx="6" ry="6" fill="#4688f4" fill-rule="evenodd"/>
 <path d="m50.915 21.876a12.11 12.11 0 0 0-8.56-3.531h-11.892a12.159 12.159 0 0 0-12.091 12.091v11.945c0 3.1905 1.3083 6.2838 3.531 8.56l29.298 29.298a4.815 4.815 0 0 0 6.8188 0l22.193-22.193a4.815 4.815 0 0 0 0-6.8188zm-25.87 25.913a7.49 7.49 0 0 1-2.2664-5.4618v-11.892c0-4.2508 3.4824-7.6845 7.6845-7.6845h11.945c2.033 0 4.0125 0.77329 5.4618 2.2713l29.688 29.639-22.869 22.869-29.639-29.736zm3.0446-19.775h9.6737v9.6737h-9.7224v-9.6737z" fill="#f9f9f9" fill-rule="evenodd" stroke-width="4.8636"/>
</svg>
