<svg viewBox="0 0 14.573 13.91" xmlns="http://www.w3.org/2000/svg">
	<path d="m3.5195 0c-0.26563 0.011719-0.47656 0.23047-0.47656 0.5v0.45703h-1c-1.1328 0-2.043 0.91016-2.043 2.043v7.957c0 1.1289 0.91016 2.043 2.043 2.043h4.8059v-2h-4.8489v-8h10v3.9018h2v-3.9018c0-1.1328-0.91406-2.043-2.0469-2.043h-0.91016v-0.45703c0-0.27734-0.22266-0.5-0.5-0.5s-0.5 0.22266-0.5 0.5v0.45703h-6v-0.45703c0-0.27734-0.22266-0.5-0.5-0.5zm-0.51953 4v2h2v-2zm3 0v2h2v-2zm3 0v2h2v-2zm-6 3v2h2v-2zm3 0v2h2v-2z"/>
	<path d="m11.666 8.0953c-1.6055 0-2.9073 1.3017-2.9073 2.9073s1.3017 2.9073 2.9073 2.9073 2.9073-1.3017 2.9073-2.9073-1.3017-2.9073-2.9073-2.9073zm-0.36341 1.0902h0.72681v1.4536h1.4536v0.72681h-1.4536v1.4536h-0.72681v-1.4536h-1.4536v-0.72681h1.4536z"/>
</svg>

