<?xml version="1.0" standalone="no"?>
<!DOCTYPE svg PUBLIC "-//W3C//DTD SVG 20010904//EN"
 "http://www.w3.org/TR/2001/REC-SVG-20010904/DTD/svg10.dtd">
<svg version="1.0" xmlns="http://www.w3.org/2000/svg"
 width="700.000000pt" height="700.000000pt" viewBox="0 0 700.000000 700.000000"
 preserveAspectRatio="xMidYMid meet">
<metadata>
Created by potrace 1.11, written by Peter Selinger 2001-2013
</metadata>
<g transform="translate(0.000000,700.000000) scale(0.100000,-0.100000)"
fill="#000000" stroke="none">
<path d="M1680 6500 l0 -500 260 0 260 0 0 500 0 500 -260 0 -260 0 0 -500z"/>
<path d="M4760 6500 l0 -500 260 0 260 0 0 500 0 500 -260 0 -260 0 0 -500z"/>
<path d="M515 6481 c-134 -39 -247 -127 -313 -244 -67 -118 -62 114 -62 -2987
0 -3101 -5 -2869 62 -2987 43 -77 134 -166 206 -202 131 -66 -115 -61 3072
-61 3169 0 2943 -4 3064 57 117 58 218 178 256 302 20 62 20 102 20 2891 0
2789 0 2829 -20 2891 -38 124 -139 244 -256 302 -102 51 -148 57 -463 57
l-290 0 -3 -412 -3 -413 -28 -48 c-34 -58 -98 -102 -172 -117 -35 -7 -232 -10
-596 -8 -531 3 -545 4 -589 24 -54 26 -103 75 -127 129 -16 36 -18 80 -21 443
l-3 402 -769 0 -769 0 -3 -402 c-3 -384 -4 -405 -24 -448 -25 -54 -87 -113
-140 -131 -31 -11 -152 -14 -609 -14 -557 0 -571 0 -615 21 -54 25 -100 69
-126 121 -18 35 -19 69 -22 446 l-3 407 -297 -1 c-252 0 -306 -3 -357 -18z
m5785 -3731 l0 -2250 -2820 0 -2820 0 0 2250 0 2250 2820 0 2820 0 0 -2250z"/>
<path d="M2190 4250 l0 -250 260 0 260 0 0 250 0 250 -260 0 -260 0 0 -250z"/>
<path d="M3220 4250 l0 -250 260 0 260 0 0 250 0 250 -260 0 -260 0 0 -250z"/>
<path d="M4250 4250 l0 -250 260 0 260 0 0 250 0 250 -260 0 -260 0 0 -250z"/>
<path d="M5280 4250 l0 -250 260 0 260 0 0 250 0 250 -260 0 -260 0 0 -250z"/>
<path d="M1170 3250 l0 -250 255 0 255 0 0 250 0 250 -255 0 -255 0 0 -250z"/>
<path d="M2190 3250 l0 -250 260 0 260 0 0 250 0 250 -260 0 -260 0 0 -250z"/>
<path d="M3220 3250 l0 -250 260 0 260 0 0 250 0 250 -260 0 -260 0 0 -250z"/>
<path d="M4250 3250 l0 -250 260 0 260 0 0 250 0 250 -260 0 -260 0 0 -250z"/>
<path d="M5280 3250 l0 -250 260 0 260 0 0 250 0 250 -260 0 -260 0 0 -250z"/>
<path d="M1170 2250 l0 -250 255 0 255 0 0 250 0 250 -255 0 -255 0 0 -250z"/>
<path d="M2190 2250 l0 -250 260 0 260 0 0 250 0 250 -260 0 -260 0 0 -250z"/>
<path d="M3220 2250 l0 -250 260 0 260 0 0 250 0 250 -260 0 -260 0 0 -250z"/>
<path d="M4250 2250 l0 -250 260 0 260 0 0 250 0 250 -260 0 -260 0 0 -250z"/>
<path d="M5280 2250 l0 -250 260 0 260 0 0 250 0 250 -260 0 -260 0 0 -250z"/>
<path d="M1170 1250 l0 -250 255 0 255 0 0 250 0 250 -255 0 -255 0 0 -250z"/>
<path d="M2190 1250 l0 -250 260 0 260 0 0 250 0 250 -260 0 -260 0 0 -250z"/>
<path d="M3220 1250 l0 -250 260 0 260 0 0 250 0 250 -260 0 -260 0 0 -250z"/>
<path d="M4250 1250 l0 -250 260 0 260 0 0 250 0 250 -260 0 -260 0 0 -250z"/>
</g>
</svg>
